<?xml version="1.0" standalone="no"?>
<!DOCTYPE svg PUBLIC "-//W3C//DTD SVG 20010904//EN"
 "http://www.w3.org/TR/2001/REC-SVG-20010904/DTD/svg10.dtd">
<svg version="1.0" xmlns="http://www.w3.org/2000/svg"
 width="980.000000pt" height="980.000000pt" viewBox="0 0 980.000000 980.000000"
 preserveAspectRatio="xMidYMid meet">

<g transform="translate(0.000000,980.000000) scale(0.100000,-0.100000)"
fill="#000000" stroke="none">
<path d="M4695 6944 c-321 -48 -531 -112 -745 -226 -589 -314 -983 -870 -1081
-1526 l-13 -84 -65 -46 c-346 -245 -642 -518 -801 -740 -72 -101 -153 -261
-175 -347 -19 -74 -19 -203 -1 -273 56 -209 277 -359 616 -418 110 -19 488
-30 637 -19 88 6 99 10 125 35 47 47 37 125 -21 154 -23 12 -54 13 -192 5
-364 -21 -686 30 -841 134 -160 107 -185 242 -83 452 75 155 191 298 410 502
110 103 357 303 374 303 4 0 12 -62 19 -137 60 -676 453 -1277 1057 -1612 369
-206 825 -291 1252 -236 782 102 1441 652 1687 1410 214 658 65 1417 -379
1939 -37 42 -64 80 -62 83 10 9 224 32 403 43 487 29 845 -59 955 -236 122
-198 -85 -559 -545 -950 -95 -81 -110 -131 -57 -185 23 -22 39 -29 70 -29 53
0 111 48 336 274 189 190 272 298 346 451 60 124 79 196 79 301 0 298 -227
486 -670 556 -57 9 -180 13 -370 13 -286 0 -413 -10 -652 -51 l-88 -15 -53 44
c-186 152 -449 286 -702 359 -190 55 -301 70 -530 73 -115 2 -223 1 -240 -1z
m266 -210 c50 -25 117 -114 173 -227 50 -102 111 -265 103 -273 -2 -2 -84 -31
-183 -64 -98 -33 -264 -93 -367 -132 -103 -39 -190 -69 -192 -66 -6 6 59 255
91 347 42 124 131 295 182 352 50 56 115 92 147 82 11 -3 32 -12 46 -19z
m-413 -21 c-2 -5 -29 -60 -60 -123 -31 -63 -71 -155 -88 -205 -35 -101 -93
-324 -111 -430 -7 -38 -15 -74 -19 -78 -4 -5 -104 -52 -221 -106 -118 -54
-251 -117 -296 -139 l-83 -42 -245 0 c-135 0 -245 3 -245 6 0 4 24 57 54 118
235 482 665 835 1196 981 90 25 124 30 118 18z m812 -17 c127 -32 224 -68 345
-126 99 -48 250 -139 242 -146 -2 -2 -109 -31 -238 -64 -129 -32 -243 -62
-255 -65 -18 -6 -25 5 -63 112 -24 65 -65 160 -92 212 -27 52 -49 95 -49 97 0
7 15 4 110 -20z m905 -543 c117 -131 239 -310 305 -448 28 -56 50 -105 50
-109 0 -3 -236 -6 -524 -6 l-524 0 -6 28 c-3 15 -12 77 -21 137 -8 61 -26 161
-38 223 -21 101 -21 114 -8 122 33 16 608 156 658 159 7 1 56 -47 108 -106z
m-946 -238 c17 -92 51 -302 51 -320 0 -3 -212 -5 -470 -5 l-471 0 7 53 c12 92
8 89 181 157 290 115 664 243 674 232 4 -4 16 -56 28 -117z m-1083 -291 c-3
-9 -6 -20 -6 -25 0 -5 -21 -9 -47 -9 l-48 1 45 24 c53 29 64 30 56 9z m-1039
-299 c-60 -36 -110 -65 -113 -65 -4 0 0 22 17 93 l10 37 97 0 97 0 -108 -65z
m1007 -57 c-10 -164 -10 -583 0 -735 l8 -123 -551 0 -550 0 -10 38 c-36 137
-66 421 -54 508 6 44 9 47 87 98 121 78 305 186 451 265 l130 71 248 0 249 0
-8 -122z m1193 45 c10 -100 10 -724 -1 -825 l-8 -78 -488 0 -488 0 -8 78 c-11
101 -11 725 -1 825 l9 77 488 0 488 0 9 -77z m1302 40 c72 -266 72 -633 0
-905 l-10 -38 -550 0 -551 0 8 123 c4 67 8 232 8 367 0 135 -4 300 -8 368 l-8
122 551 0 550 0 10 -37z m-2465 -1175 c3 -18 13 -82 22 -143 50 -341 143 -662
250 -864 24 -46 42 -86 40 -89 -8 -7 -141 28 -249 65 -387 134 -717 389 -945
733 -51 77 -172 304 -172 322 0 5 236 8 525 8 l524 0 5 -32z m1132 -5 c-62
-417 -128 -667 -231 -878 -61 -126 -133 -214 -195 -239 -37 -15 -43 -15 -80 0
-126 50 -260 318 -350 698 -25 103 -80 413 -80 449 0 4 212 7 471 7 l471 0 -6
-37z m1254 33 c0 -14 -67 -149 -115 -232 -203 -352 -532 -640 -905 -791 -147
-59 -359 -118 -348 -96 126 252 158 338 216 569 34 135 50 222 98 522 l5 32
524 0 c289 0 525 -2 525 -4z"/>
</g>
</svg>
